# xmcd
#
# Track frame offsets:
#	150
#	16240
#	45703
#	62374
#	91718
#	115142
#	132880
#	161362
#	180746
#	218631
#	251405
#	269381
#	280086
#	294545
#
# Disc length: 4132 seconds
#
# Revision: 3
# Processed by: cddbd v1.5.2PL0 Copyright (c) Steve Scherf et al.
# Submitted via: EZCDAudioConverter 7.0.6.1
#
DISCID=b910220e
DTITLE=INXS - Kick 30 3/3
DYEAR=2017
DGENRE=
TTITLE0=Never Tear Us Apart [Soul Version]
TTITLE1=New Sensation [Nick 12" Mix]
TTITLE2=New Sensation [Nick 7" Mix]
TTITLE3=Devil Inside [Extended Remix]
TTITLE4=Devil Inside [7" Version]
TTITLE5=Devil Inside [Radio Edit]
TTITLE6=Different World [12" Version]
TTITLE7=Different World [7" Version]
TTITLE8=Need You Tonight [Big Bump Mix]
TTITLE9=Need You Tonight [Ben Liebrand Mix]
TTITLE10=Need You Tonight [Mendelsohn 7" Edit]
TTITLE11=Guns In The Sky [Kookaburra Mix]
TTITLE12=Calling All Nations [Kids On Bridges Remix]
TTITLE13=Shine Like It Does [Live]
EXTD=
EXTT0=
EXTT1=
EXTT2=
EXTT3=
EXTT4=
EXTT5=
EXTT6=
EXTT7=
EXTT8=
EXTT9=
EXTT10=
EXTT11=
EXTT12=
EXTT13=
PLAYORDER=
